<svg version="1" xmlns="http://www.w3.org/2000/svg" width="401.333" height="401.333" viewBox="0 0 301.000000 301.000000"><path d="M15.7 6.2C15.9 8 21.4 67.7 28 138.9c6.6 71.1 12.1 129.6 12.4 129.8.8.8 108 29.3 110.1 29.3 2.5 0 109.3-28.5 110.3-29.4.3-.4 5.9-57.7 12.3-127.4 6.5-69.7 12-129.3 12.4-132.5l.6-5.7H15.4l.3 3.2zm151.3 40c0 .4-1.5 6.6-3.4 13.7l-3.4 13 6.6 1.5c3.7.8 7 1.2 7.4.8.4-.4 2.1-6.3 3.8-13.2 1.7-6.9 3.3-12.6 3.5-12.8.3-.3 16.7 3.7 17.2 4.2.2.1-1.3 6.2-3.3 13.6-1.9 7.3-3.1 13.6-2.7 14 .4.3 3.9 1.9 7.6 3.5 18.7 7.7 26.7 16.9 26.7 30.9 0 13-6 23.2-16.2 27.6-4.8 2-5.1 2.4-3.4 3.4 4.1 2.3 11.9 10.2 13.9 14.1 5.7 11-.2 32.6-11.7 42.8-7.6 6.6-21.4 9.5-37.9 7.8-6-.7-11.4-1.3-12-1.4-.6-.1-2.6 5.9-4.6 13.3-1.9 7.4-3.6 13.7-3.7 13.9-.8.9-17.4-3.3-17.4-4.4 0-.7 1.3-6.4 3-12.6 1.6-6.3 3-12.1 3-12.9 0-1-2-2.1-6.2-3.2-3.5-.9-6.4-1.5-6.6-1.3-.2.1-1.9 6.3-3.8 13.6-2 7.4-3.7 13.5-3.8 13.6-.3.3-16.9-3.7-17.4-4.1-.2-.2 1.3-6.6 3.3-14.1 2-7.5 3.5-13.8 3.3-14-.2-.1-7.9-2.1-17.2-4.4-9.3-2.2-17.1-4.3-17.3-4.5-.3-.3 7.3-18.5 8.1-19.3.1-.1 2.9.4 6.1 1.2 7.7 1.8 12 1.9 13.4.1 1.3-1.5 21.1-77.2 21.1-80.4 0-4.1-3.7-7-11.5-8.8-4.1-1-7.9-2-8.5-2.4-1-.6 2.5-15.6 4.1-17.4.4-.5 8.2 1 17.5 3.3 9.2 2.2 17.1 3.8 17.5 3.4.4-.5 2.2-6.4 3.9-13.3 1.7-6.8 3.3-12.7 3.5-13 .5-.9 17.5 3.2 17.5 4.2z"/><path d="M151.2 109.7c-2.2 9.2-4 16.9-3.8 17 1.4 1.4 17.7 4.4 24.3 4.4 10.8.1 16.2-2.3 19.2-8.5 2.5-5 2.6-7.5.7-11.9-2.8-6.7-11.5-11.8-26.8-15.6-4.7-1.1-8.8-2.1-9-2.1-.3 0-2.3 7.5-4.6 16.7zM137.7 162.4c-2.5 9.9-4.3 18.4-3.9 18.7 2.2 2.1 20.5 5.3 30.2 5.3 12 .1 16.8-1.6 20.8-7.4 2.9-4.4 3-11.9.1-16.6-4-6.6-16.1-12.4-34-16.3l-8.6-1.8-4.6 18.1z"/></svg>